<?xml version="1.0" standalone="no"?>
<!DOCTYPE svg PUBLIC "-//W3C//DTD SVG 20010904//EN"
 "http://www.w3.org/TR/2001/REC-SVG-20010904/DTD/svg10.dtd">
<svg version="1.0" xmlns="http://www.w3.org/2000/svg"
 width="600.000000pt" height="600.000000pt" viewBox="0 0 600.000000 600.000000"
 preserveAspectRatio="xMidYMid meet">
<g transform="translate(0.000000,600.000000) scale(0.100000,-0.100000)"
fill="#000000" stroke="none">
<path d="M516 3839 c-14 -20 -15 -102 -16 -676 0 -632 0 -653 19 -672 11 -11
17 -22 13 -25 -3 -3 63 -6 147 -6 134 0 156 2 180 19 23 17 29 17 46 5 16 -12
88 -14 420 -14 385 1 518 9 484 31 -10 6 -6 9 14 9 32 0 89 34 135 81 94 95
137 208 130 342 -4 81 -35 184 -62 209 -10 9 -4 29 23 92 34 76 36 87 36 186
0 76 -4 115 -16 140 -9 19 -22 50 -29 67 -16 42 -134 168 -149 159 -6 -4 13
-30 49 -65 101 -99 152 -240 130 -358 -5 -32 -26 -91 -45 -131 l-35 -73 24
-37 c72 -116 75 -276 8 -408 -30 -59 -93 -125 -153 -161 -100 -60 -131 -63
-566 -63 l-393 0 0 164 0 164 378 6 c273 5 384 10 402 19 59 30 63 120 7 161
-28 20 -40 21 -433 24 l-404 3 0 -271 0 -270 -165 0 -165 0 2 673 3 672 590 0
c589 0 590 0 660 -23 39 -13 76 -26 83 -28 6 -3 12 1 12 9 0 8 -27 23 -67 38
l-68 24 -607 3 -606 3 -16 -22z m1157 -850 c12 -7 25 -17 29 -23 13 -18 8 -70
-7 -90 -18 -23 -49 -25 -465 -29 -168 -2 -313 -7 -322 -11 -9 -4 -19 -15 -21
-24 -3 -10 -5 29 -6 86 l-1 102 386 0 c271 0 392 -3 407 -11z"/>
<path d="M2231 3576 c0 -296 7 -357 46 -414 9 -15 18 -31 18 -37 0 -5 7 -10
15 -10 8 0 14 -8 14 -17 -1 -10 10 -23 26 -30 16 -7 27 -15 25 -19 -10 -16
109 -62 182 -70 92 -11 343 -9 343 3 0 4 4 8 9 8 4 0 11 -111 15 -247 6 -196
10 -250 22 -259 7 -6 10 -15 6 -19 -4 -4 3 -2 16 4 14 8 22 8 22 1 0 -6 46
-10 125 -10 86 0 125 4 125 11 0 8 5 8 15 -1 11 -9 15 -9 15 -1 0 7 4 10 9 6
16 -9 20 24 27 263 l7 232 156 2 c86 0 163 1 171 0 33 -3 120 20 143 39 14 10
32 19 41 19 18 0 116 97 116 116 0 8 4 14 8 14 5 0 17 19 27 43 17 37 19 77
23 326 2 214 0 290 -9 308 -12 23 -15 23 -169 23 -139 0 -159 -2 -173 -18 -15
-16 -17 -49 -17 -248 -1 -188 -3 -233 -16 -249 -14 -19 -28 -20 -336 -23 -212
-2 -326 -7 -335 -14 -9 -7 -14 -46 -15 -127 l-2 -116 -3 114 c-2 63 -9 121
-15 128 -7 9 -45 13 -138 13 -111 0 -129 2 -144 18 -14 16 -17 53 -21 252 -3
128 -10 241 -16 251 -9 18 -23 19 -184 19 l-174 0 0 -284z m1747 -37 c-3 -267
-4 -287 -25 -331 -30 -66 -105 -143 -172 -175 -55 -27 -61 -28 -276 -33 l-220
-5 -3 -252 -2 -253 -165 0 -165 0 2 403 3 402 328 5 328 5 19 25 c18 23 20 44
20 262 l0 237 158 3 c86 2 161 0 165 -3 5 -3 7 -134 5 -290z m-1396 45 c4
-306 -11 -284 184 -284 l134 0 0 -151 0 -150 -202 3 c-200 3 -204 3 -256 31
-68 36 -124 94 -159 165 l-28 57 -3 288 -3 287 165 0 165 0 3 -246z"/>
<path d="M3668 3601 c2 -178 0 -227 -12 -256 -26 -62 -45 -65 -388 -65 l-303
0 2 -387 3 -388 150 -3 150 -3 0 255 0 254 218 4 c213 3 218 3 277 31 78 36
137 95 172 171 l28 61 3 273 4 272 -154 0 -153 0 3 -219z m269 185 c8 -7 2
-506 -6 -531 -16 -53 -44 -99 -74 -125 -17 -14 -38 -33 -48 -42 -11 -10 -19
-16 -19 -14 0 3 -21 -5 -47 -16 -44 -20 -63 -21 -251 -19 -181 2 -206 0 -223
-15 -18 -16 -19 -34 -19 -256 l0 -238 -130 0 -130 0 -1 343 c0 188 -2 352 -5
365 l-4 22 283 1 c155 1 293 3 307 5 14 2 33 5 43 7 10 2 29 17 42 33 20 24
24 40 25 99 0 39 3 141 7 227 6 149 7 157 27 160 22 3 219 -2 223 -6z"/>
<path d="M2262 3548 c4 -222 8 -281 22 -317 36 -98 129 -182 228 -207 34 -9
110 -14 215 -14 l163 0 0 135 0 135 -115 0 c-124 0 -175 13 -194 48 -7 13 -11
107 -11 256 l0 236 -156 0 -156 0 4 -272z m279 64 c1 -194 5 -256 20 -285 18
-33 43 -57 60 -57 8 0 18 -3 22 -6 3 -4 56 -6 117 -5 l110 2 0 -110 0 -111
-127 -1 c-71 0 -145 -2 -165 -3 -21 -2 -56 5 -79 16 -23 10 -48 18 -55 18 -8
0 -17 7 -20 15 -4 8 -12 15 -19 15 -7 0 -31 24 -53 53 -52 67 -69 134 -65 252
1 50 3 158 3 240 l0 150 125 -3 125 -3 1 -177z"/>
<path d="M4180 3841 c-7 -13 -10 -242 -10 -686 0 -581 2 -666 15 -671 8 -4 12
-10 9 -15 -3 -5 62 -9 151 -9 152 0 156 1 180 25 14 13 25 19 25 14 0 -33 25
-36 294 -38 161 -1 266 1 262 7 -3 5 6 7 20 4 26 -5 142 15 159 27 6 4 29 13
53 21 23 7 41 18 39 24 -5 14 -18 12 -107 -21 -75 -27 -76 -27 -387 -31 l-313
-3 0 165 0 164 298 4 297 3 57 27 c71 33 142 103 174 171 19 42 24 68 24 137
0 73 -4 94 -29 145 -32 69 -93 130 -166 165 -50 25 -53 25 -377 28 l-328 3 0
-505 0 -506 -165 0 -165 0 2 673 3 672 465 -1 c316 0 487 -5 535 -13 43 -7
107 -30 164 -58 159 -76 280 -215 342 -390 30 -85 37 -269 15 -365 -38 -160
-139 -308 -268 -395 -57 -38 -71 -52 -62 -61 9 -8 14 -7 18 4 3 8 10 13 15 10
5 -3 15 1 22 10 7 8 25 22 41 30 16 8 26 19 23 25 -4 5 -3 8 2 7 4 -2 19 5 33
15 13 9 22 17 18 17 -3 0 12 19 33 42 22 24 39 46 39 49 0 3 9 16 19 28 11 13
32 55 47 94 14 40 31 83 38 96 7 15 11 85 11 180 0 166 -10 215 -61 309 -12
23 -17 39 -11 35 7 -4 -3 10 -20 30 -18 21 -33 41 -33 45 0 25 -169 172 -197
172 -8 0 -11 5 -7 12 4 7 3 8 -4 4 -7 -4 -12 -3 -12 2 0 5 -10 13 -22 17 -13
4 -25 8 -28 10 -123 55 -156 58 -687 62 -460 3 -472 3 -483 -16z m979 -371 c9
-5 42 -21 74 -36 32 -15 71 -43 87 -60 15 -18 31 -30 35 -26 4 4 6 2 4 -3 -1
-6 5 -27 14 -47 10 -21 17 -42 17 -48 0 -5 3 -10 8 -10 4 0 4 -43 1 -95 -4
-68 -11 -101 -23 -113 -9 -10 -16 -23 -16 -28 0 -12 -53 -68 -96 -100 -67 -51
-97 -55 -407 -55 -245 1 -289 -1 -293 -14 -4 -8 -9 -13 -13 -11 -3 2 -5 151
-3 330 l3 327 296 -1 c163 -1 303 -5 312 -10z"/>
<path d="M540 3160 l0 -661 150 3 151 3 2 265 2 265 423 0 424 0 29 -33 c34
-37 40 -102 13 -140 -35 -51 -46 -52 -444 -52 l-370 0 0 -151 0 -150 423 3
422 3 58 29 c124 62 204 167 229 303 15 80 -2 177 -42 252 -17 30 -30 58 -30
64 0 5 17 43 38 85 35 72 37 81 37 171 0 87 -3 102 -32 162 -61 124 -157 202
-281 228 -35 7 -245 11 -627 11 l-575 0 0 -660z m1240 615 c47 -8 137 -72 177
-126 48 -65 64 -105 75 -189 11 -87 3 -130 -42 -222 -17 -34 -30 -70 -30 -79
0 -10 16 -47 35 -82 33 -59 35 -70 36 -158 1 -69 -3 -106 -16 -139 -21 -53
-74 -127 -110 -155 -14 -11 -33 -27 -43 -36 -20 -19 -125 -56 -167 -59 -16 -1
-193 -2 -392 -1 l-363 1 0 125 c0 69 1 125 3 126 1 0 168 2 371 5 263 4 372 9
383 17 54 43 73 73 73 113 0 70 -36 118 -107 142 -22 7 -164 11 -418 11 -373
0 -386 0 -406 -20 -11 -11 -19 -25 -18 -32 1 -7 1 -119 0 -249 l-1 -238 -130
0 -130 0 0 630 0 630 578 2 c317 2 584 0 592 -4 8 -4 31 -10 50 -13z"/>
<path d="M838 3523 c-17 -20 -23 -106 -12 -189 6 -48 9 -54 37 -64 39 -13 760
-13 810 1 18 5 46 23 63 40 25 26 29 38 28 82 0 29 -3 59 -5 67 -6 19 -40 55
-68 69 -13 7 -156 11 -429 11 -377 0 -410 -1 -424 -17z m864 -28 c60 -45 66
-119 14 -171 l-34 -34 -416 0 -416 0 0 115 0 116 413 -3 c394 -3 413 -4 439
-23z"/>
<path d="M860 3400 l0 -101 411 3 411 3 29 33 c16 18 29 44 29 58 0 35 -28 80
-57 93 -16 7 -158 11 -423 11 l-400 0 0 -100z m821 59 c24 -16 29 -28 29 -59
0 -32 -5 -43 -27 -57 -25 -16 -63 -18 -415 -21 l-388 -3 0 81 0 80 386 0 c374
0 387 -1 415 -21z"/>
<path d="M4210 3160 l0 -660 150 0 150 0 0 511 0 510 328 -3 327 -3 56 -26
c146 -69 228 -205 216 -357 -10 -133 -103 -253 -231 -301 -53 -20 -76 -21
-341 -21 l-285 0 0 -155 0 -155 258 0 c343 1 440 19 580 109 282 183 380 542
231 849 -58 119 -168 230 -289 290 -139 68 -174 72 -695 72 l-455 0 0 -660z
m1000 620 c36 -5 66 -14 68 -20 2 -5 12 -10 23 -10 24 0 86 -33 123 -65 16
-14 32 -25 35 -25 7 0 61 -53 100 -98 24 -28 94 -146 96 -162 0 -3 7 -16 14
-28 7 -13 10 -26 7 -29 -2 -3 0 -17 5 -32 6 -14 13 -69 15 -121 5 -80 1 -111
-20 -194 -14 -54 -32 -106 -39 -115 -8 -9 -25 -36 -40 -61 -30 -54 -102 -130
-153 -165 -20 -14 -33 -25 -28 -25 15 0 -78 -45 -132 -64 -92 -32 -115 -34
-395 -36 l-279 -1 0 124 0 125 56 7 c31 4 156 5 278 4 l221 -3 68 34 c268 131
304 468 69 647 -18 14 -40 26 -48 27 -9 1 -19 7 -22 13 -15 24 -119 32 -413
33 -263 0 -308 -2 -319 -15 -10 -11 -14 -130 -18 -505 l-5 -490 -123 0 -124 0
0 633 0 632 457 -2 c252 -2 487 -7 523 -13z"/>
</g>
</svg>
